<mxfile host="app.diagrams.net" modified="2024-07-29T19:10:43.351Z" agent="Mozilla/5.0 (Windows NT 10.0; Win64; x64) AppleWebKit/537.36 (KHTML, like Gecko) Chrome/123.0.0.0 Safari/537.36 OPR/109.0.0.0 (Edition std-1)" etag="9jPSuZk1Mt5QZAYgR2bh" version="24.4.7" type="github">
  <diagram name="PÃ¡gina-1" id="DfCFzBWPjYUP4mvVyBNF">
    <mxGraphModel dx="1249" dy="542" grid="1" gridSize="10" guides="1" tooltips="1" connect="1" arrows="1" fold="1" page="1" pageScale="1" pageWidth="827" pageHeight="1169" math="0" shadow="0">
      <root>
        <mxCell id="0" />
        <mxCell id="1" parent="0" />
        <mxCell id="SLOr1x2EOw8XDxc0Bmg4-15" style="edgeStyle=orthogonalEdgeStyle;rounded=0;orthogonalLoop=1;jettySize=auto;html=1;exitX=0.5;exitY=1;exitDx=0;exitDy=0;" edge="1" parent="1" source="SLOr1x2EOw8XDxc0Bmg4-1">
          <mxGeometry relative="1" as="geometry">
            <mxPoint x="414" y="210" as="targetPoint" />
          </mxGeometry>
        </mxCell>
        <mxCell id="SLOr1x2EOw8XDxc0Bmg4-16" style="edgeStyle=orthogonalEdgeStyle;rounded=0;orthogonalLoop=1;jettySize=auto;html=1;exitX=0;exitY=1;exitDx=0;exitDy=0;" edge="1" parent="1" source="SLOr1x2EOw8XDxc0Bmg4-1">
          <mxGeometry relative="1" as="geometry">
            <mxPoint x="200" y="210" as="targetPoint" />
          </mxGeometry>
        </mxCell>
        <mxCell id="SLOr1x2EOw8XDxc0Bmg4-17" style="edgeStyle=orthogonalEdgeStyle;rounded=0;orthogonalLoop=1;jettySize=auto;html=1;exitX=1;exitY=1;exitDx=0;exitDy=0;" edge="1" parent="1" source="SLOr1x2EOw8XDxc0Bmg4-1">
          <mxGeometry relative="1" as="geometry">
            <mxPoint x="620" y="210" as="targetPoint" />
          </mxGeometry>
        </mxCell>
        <mxCell id="SLOr1x2EOw8XDxc0Bmg4-1" value="Iphone" style="rounded=0;whiteSpace=wrap;html=1;" vertex="1" parent="1">
          <mxGeometry x="359" y="90" width="110" height="30" as="geometry" />
        </mxCell>
        <mxCell id="SLOr1x2EOw8XDxc0Bmg4-2" value="Reprodutor Musical" style="swimlane;fontStyle=0;childLayout=stackLayout;horizontal=1;startSize=30;horizontalStack=0;resizeParent=1;resizeParentMax=0;resizeLast=0;collapsible=1;marginBottom=0;whiteSpace=wrap;html=1;" vertex="1" parent="1">
          <mxGeometry x="130" y="220" width="140" height="120" as="geometry" />
        </mxCell>
        <mxCell id="SLOr1x2EOw8XDxc0Bmg4-3" value="Tocar()" style="text;strokeColor=none;fillColor=none;align=left;verticalAlign=middle;spacingLeft=4;spacingRight=4;overflow=hidden;points=[[0,0.5],[1,0.5]];portConstraint=eastwest;rotatable=0;whiteSpace=wrap;html=1;" vertex="1" parent="SLOr1x2EOw8XDxc0Bmg4-2">
          <mxGeometry y="30" width="140" height="30" as="geometry" />
        </mxCell>
        <mxCell id="SLOr1x2EOw8XDxc0Bmg4-4" value="Pausar()" style="text;strokeColor=none;fillColor=none;align=left;verticalAlign=middle;spacingLeft=4;spacingRight=4;overflow=hidden;points=[[0,0.5],[1,0.5]];portConstraint=eastwest;rotatable=0;whiteSpace=wrap;html=1;" vertex="1" parent="SLOr1x2EOw8XDxc0Bmg4-2">
          <mxGeometry y="60" width="140" height="30" as="geometry" />
        </mxCell>
        <mxCell id="SLOr1x2EOw8XDxc0Bmg4-5" value="SelecionarMusica(String musica)" style="text;strokeColor=none;fillColor=none;align=left;verticalAlign=middle;spacingLeft=4;spacingRight=4;overflow=hidden;points=[[0,0.5],[1,0.5]];portConstraint=eastwest;rotatable=0;whiteSpace=wrap;html=1;" vertex="1" parent="SLOr1x2EOw8XDxc0Bmg4-2">
          <mxGeometry y="90" width="140" height="30" as="geometry" />
        </mxCell>
        <mxCell id="SLOr1x2EOw8XDxc0Bmg4-6" value="Aparelho Telefonico" style="swimlane;fontStyle=0;childLayout=stackLayout;horizontal=1;startSize=30;horizontalStack=0;resizeParent=1;resizeParentMax=0;resizeLast=0;collapsible=1;marginBottom=0;whiteSpace=wrap;html=1;" vertex="1" parent="1">
          <mxGeometry x="340" y="220" width="140" height="120" as="geometry" />
        </mxCell>
        <mxCell id="SLOr1x2EOw8XDxc0Bmg4-7" value="Ligar(String Numero)" style="text;strokeColor=none;fillColor=none;align=left;verticalAlign=middle;spacingLeft=4;spacingRight=4;overflow=hidden;points=[[0,0.5],[1,0.5]];portConstraint=eastwest;rotatable=0;whiteSpace=wrap;html=1;" vertex="1" parent="SLOr1x2EOw8XDxc0Bmg4-6">
          <mxGeometry y="30" width="140" height="30" as="geometry" />
        </mxCell>
        <mxCell id="SLOr1x2EOw8XDxc0Bmg4-8" value="Atender()" style="text;strokeColor=none;fillColor=none;align=left;verticalAlign=middle;spacingLeft=4;spacingRight=4;overflow=hidden;points=[[0,0.5],[1,0.5]];portConstraint=eastwest;rotatable=0;whiteSpace=wrap;html=1;" vertex="1" parent="SLOr1x2EOw8XDxc0Bmg4-6">
          <mxGeometry y="60" width="140" height="30" as="geometry" />
        </mxCell>
        <mxCell id="SLOr1x2EOw8XDxc0Bmg4-9" value="IniciarCorreioDeVoz()" style="text;strokeColor=none;fillColor=none;align=left;verticalAlign=middle;spacingLeft=4;spacingRight=4;overflow=hidden;points=[[0,0.5],[1,0.5]];portConstraint=eastwest;rotatable=0;whiteSpace=wrap;html=1;" vertex="1" parent="SLOr1x2EOw8XDxc0Bmg4-6">
          <mxGeometry y="90" width="140" height="30" as="geometry" />
        </mxCell>
        <mxCell id="SLOr1x2EOw8XDxc0Bmg4-10" value="Navegador na Internet" style="swimlane;fontStyle=0;childLayout=stackLayout;horizontal=1;startSize=30;horizontalStack=0;resizeParent=1;resizeParentMax=0;resizeLast=0;collapsible=1;marginBottom=0;whiteSpace=wrap;html=1;" vertex="1" parent="1">
          <mxGeometry x="550" y="220" width="140" height="120" as="geometry" />
        </mxCell>
        <mxCell id="SLOr1x2EOw8XDxc0Bmg4-11" value="ExibirPagina(String url)" style="text;strokeColor=none;fillColor=none;align=left;verticalAlign=middle;spacingLeft=4;spacingRight=4;overflow=hidden;points=[[0,0.5],[1,0.5]];portConstraint=eastwest;rotatable=0;whiteSpace=wrap;html=1;" vertex="1" parent="SLOr1x2EOw8XDxc0Bmg4-10">
          <mxGeometry y="30" width="140" height="30" as="geometry" />
        </mxCell>
        <mxCell id="SLOr1x2EOw8XDxc0Bmg4-12" value="AdicionarNovaAba()" style="text;strokeColor=none;fillColor=none;align=left;verticalAlign=middle;spacingLeft=4;spacingRight=4;overflow=hidden;points=[[0,0.5],[1,0.5]];portConstraint=eastwest;rotatable=0;whiteSpace=wrap;html=1;" vertex="1" parent="SLOr1x2EOw8XDxc0Bmg4-10">
          <mxGeometry y="60" width="140" height="30" as="geometry" />
        </mxCell>
        <mxCell id="SLOr1x2EOw8XDxc0Bmg4-13" value="AtualuzarPagina()" style="text;strokeColor=none;fillColor=none;align=left;verticalAlign=middle;spacingLeft=4;spacingRight=4;overflow=hidden;points=[[0,0.5],[1,0.5]];portConstraint=eastwest;rotatable=0;whiteSpace=wrap;html=1;" vertex="1" parent="SLOr1x2EOw8XDxc0Bmg4-10">
          <mxGeometry y="90" width="140" height="30" as="geometry" />
        </mxCell>
      </root>
    </mxGraphModel>
  </diagram>
</mxfile>
